<svg width="104" height="37" viewBox="0 0 104 37" fill="none" xmlns="http://www.w3.org/2000/svg">
<path d="M52.0462 8.0286V19.8076H49.1494V8.0286H46.6621V5.65145H49.1494V4.06624C49.1494 0.977569 50.789 0.0761719 53.3307 0.0761719C54.0959 0.0761719 54.6696 0.1032 55.2984 0.130905V2.53576C54.8612 2.50805 54.3145 2.48102 53.7952 2.48102C52.784 2.48102 52.0462 2.75401 52.0462 4.20273V5.65145H55.2984V8.0286H52.0462Z" fill="#F2ECEB"/>
<path d="M62.7972 19.807H59.8457V5.65088H62.7698V7.78207C63.1253 7.23542 63.4807 6.77121 63.9996 6.38875C64.847 5.75967 65.6396 5.54141 66.8146 5.54141C67.1265 5.5351 67.4381 5.56252 67.7441 5.62317V8.49291C67.0332 8.43818 66.7055 8.43818 66.3501 8.43818C64.847 8.43818 62.7972 8.95713 62.7972 11.8269L62.7972 19.807Z" fill="#F2ECEB"/>
<path d="M78.3262 20.108C74.3909 20.108 71.1113 17.293 71.1113 12.6197C71.1113 8.13776 74.4726 5.32275 78.135 5.32275C81.797 5.32275 85.0492 7.86477 85.0492 12.9475V13.6313H74.1449C74.4183 16.0909 76.2491 17.5936 78.4083 17.5936C79.8293 17.5936 81.2504 17.1294 81.9609 15.7625H84.9127C84.0654 18.7964 81.0865 20.108 78.3262 20.108ZM74.1176 11.2805H81.9609C81.797 9.17633 80.2118 7.81004 78.0803 7.81004C76.0579 7.81004 74.3635 9.1216 74.1176 11.2805Z" fill="#F2ECEB"/>
<path d="M100.186 17.8956C99.393 19.1801 97.7804 20.1092 95.7854 20.1092C92.2054 20.1092 89.1992 17.5131 89.1992 12.621C89.1992 7.94777 92.3419 5.32399 95.8127 5.32399C97.8625 5.32399 99.393 6.22606 100.186 7.31936V0.131836H103.137V19.8085H100.186V17.8956ZM100.24 12.621C100.24 9.61475 98.5456 7.83831 96.2499 7.83831C93.9272 7.83831 92.2598 9.64245 92.2598 12.621C92.2598 15.7367 93.9272 17.5949 96.2499 17.5949C98.4639 17.5949 100.24 15.7367 100.24 12.621Z" fill="#F2ECEB"/>
<path d="M33.3141 25.2183C32.4553 25.6636 31.5593 26.0529 30.6505 26.4179C30.1966 26.6021 29.7343 26.7686 29.2718 26.937C28.8075 27.095 28.3426 27.2503 27.8485 27.4331C25.9234 28.1641 24.1861 29.3991 23.1046 31.0541C22.5789 31.8401 22.2218 32.7265 22.0558 33.6573L22.0438 33.7367C21.8072 32.8435 21.3531 31.6735 20.893 30.9825C19.8443 29.3993 18.1134 28.0958 16.018 27.311C15.5869 27.1542 15.1781 27.0174 14.7727 26.8816L14.4747 26.7792C14.0473 26.6262 13.6054 26.468 13.1794 26.2974C12.107 25.8724 11.2523 25.493 10.4887 25.1024C8.59875 24.151 7.01049 23.0851 5.76854 21.9344C4.98133 21.1941 4.41441 20.5512 3.97892 19.9039C3.85014 19.7308 3.73255 19.5497 3.62687 19.3616C3.58667 19.2907 3.54342 19.2207 3.50018 19.1504C3.42705 19.037 3.36006 18.9197 3.29949 18.7991C3.24558 18.6895 3.19908 18.5764 3.1603 18.4605C2.9115 17.7364 2.78665 16.9754 2.79102 16.2098V0.0761719H3.47497e-07V15.1688C-0.000428321 16.7237 0.395751 18.2529 1.15107 19.612C1.19398 19.6886 1.23216 19.7542 1.26223 19.8025C1.35412 19.9606 1.45784 20.1045 1.55785 20.2441C1.60887 20.3154 1.66022 20.3867 1.71022 20.4606C1.85668 20.6793 2.01586 20.8891 2.18694 21.0891C2.7596 21.8158 3.47078 22.5162 4.42624 23.2946C7.95007 26.0981 12.2719 27.4448 15.6383 28.3033C17.5941 28.8915 19.2581 29.975 20.3237 31.3538C20.8959 32.0729 21.3057 32.9074 21.5251 33.7998C21.585 34.0799 21.6273 34.3635 21.6518 34.6489C21.6565 35.0658 21.6812 35.4827 21.7055 35.8857C21.7193 36.1148 21.7329 36.3439 21.743 36.574L22.0021 36.5767C22.0083 36.4826 22.0124 36.3878 22.0177 36.2933C22.0227 36.3849 22.0263 36.477 22.0322 36.5683C22.06 35.9334 22.1136 35.3058 22.1214 34.6652C22.1226 34.6527 22.1232 34.6397 22.1244 34.6272H22.1244C22.1344 34.5201 22.1474 34.4135 22.1611 34.307L22.1734 34.3049C22.1715 34.2934 22.1678 34.2791 22.1657 34.2674C22.1879 34.1013 22.2142 33.9359 22.2501 33.7719C22.471 32.8631 22.8828 32.0117 23.4581 31.2742C24.5986 29.7772 26.3104 28.7376 28.142 28.1789C31.9266 27.1998 35.8319 25.8211 39.0199 23.2971H36.1093C35.2607 24.0762 34.6725 24.5248 33.3141 25.2183Z" fill="#F2ECEB"/>
<path d="M40.5731 0.539551H37.5V20.0307H40.5731V0.539551Z" fill="#F2ECEB"/>
<path d="M31.8101 20.1082L24.0107 0.539551H20.4603L17.8386 7.11712C16.4432 6.62889 14.8685 6.21567 13.4165 6.03036C12.7073 5.94371 11.9922 5.91473 11.2783 5.94371C10.8858 5.95177 10.4943 5.98623 10.1064 6.04685C9.71439 6.10973 9.32803 6.20371 8.95095 6.3279C8.57116 6.45582 8.20522 6.62168 7.85868 6.82296C7.5056 7.02771 7.18202 7.27954 6.89685 7.57154C6.61024 7.85627 6.362 8.17717 6.1584 8.52612C5.9602 8.87834 5.81243 9.25664 5.71942 9.64996C5.62331 10.0331 5.57092 10.4259 5.56325 10.8208C5.55711 11.2097 5.5887 11.5983 5.65757 11.9811C5.72273 12.3619 5.82659 12.7351 5.96752 13.0948C6.10657 13.4484 6.27209 13.7911 6.46267 14.1198C6.83618 14.7689 7.27735 15.3767 7.7788 15.933C8.36108 16.6128 9.74296 17.6508 10.4351 18.1162L10.5314 18.0676C9.85545 17.6147 8.51505 16.638 7.83464 15.8252C7.38425 15.2489 6.82736 14.5424 6.50976 13.8884C6.19744 13.2331 5.90791 12.4213 5.84642 11.7166C5.775 11.0065 5.77959 10.1927 6.00162 9.53851C6.10529 9.20382 6.25382 8.88472 6.44317 8.58991C6.62858 8.31661 6.98849 7.85238 7.25038 7.62492C7.66039 7.23798 8.14115 6.93369 8.66634 6.72872C9.12978 6.53249 9.78756 6.43369 10.1216 6.37354C10.7216 6.27693 11.3303 6.24583 11.9371 6.2808C13.4743 6.37876 14.5462 6.74813 15.2322 6.97809C16.092 7.26629 16.8529 7.56206 17.54 7.86635L12.6607 20.1082H15.9315L18.8558 12.4764H18.8389L20.0931 9.2198C20.9139 9.74449 21.7051 10.314 22.4632 10.9258C23.922 12.0802 25.244 13.4432 26.2827 14.6317L28.3717 20.1082L31.8101 20.1082ZM22.1454 9.0824C21.6003 8.7749 21.0454 8.48542 20.4805 8.21399L22.1656 3.83822L24.8003 10.7376C23.9393 10.1493 23.0552 9.59461 22.1454 9.0824Z" fill="#F2ECEB"/>
</svg>
